<svg width="123" height="124" viewBox="0 0 123 124" fill="none" xmlns="http://www.w3.org/2000/svg">
<path d="M61.5012 0.898438C69.6193 0.898438 77.4048 4.12331 83.1451 9.86361C88.8854 15.6039 92.1103 23.3894 92.1103 31.5075C92.1103 39.6255 88.8854 47.411 83.1451 53.1513C77.4048 58.8916 69.6193 62.1165 61.5012 62.1165C53.3832 62.1165 45.5977 58.8916 39.8574 53.1513C34.1171 47.411 30.8922 39.6255 30.8922 31.5075C30.8922 23.3894 34.1171 15.6039 39.8574 9.86361C45.5977 4.12331 53.3832 0.898438 61.5012 0.898438ZM61.5012 77.421C95.3242 77.421 122.719 91.1185 122.719 108.03V123.335H0.283203V108.03C0.283203 91.1185 27.6783 77.421 61.5012 77.421Z" fill="#F6F6F6"/>
</svg>
